# xmcd
#
# Track frame offsets:
#	150
#	14153
#	24258
#	35298
#	46811
#	59239
#	69276
#	81992
#	93320
#	105566
#	116605
#	126885
#	139567
#	151323
#	160756
#
# Disc length: 2334 seconds
#
# Revision: 1
# Processed by: cddbd v1.5.1PL0 Copyright (c) Steve Scherf et al.
# Submitted via: audiograbber 1.83.01
#
DISCID=bf091c0f
DTITLE=Various Artist - Classic Country - Honky Tonk Heros Disc 1
DYEAR=2004
DGENRE=Country
TTITLE0=Lefty Frizzell - Always Late (With your Kisses)
TTITLE1=George Jones - Why Baby Why
TTITLE2=Marty Robbins - Singing The Blues
TTITLE3=Ray Price - Crazy Arms
TTITLE4=Floyd Tillman - I Love you So Much, It Hurts
TTITLE5=Johnny Horton - Honky Tonk Man
TTITLE6=Johnny Cash - Folsom Prison Blues
TTITLE7=Stonewall Jackson - Life To Go
TTITLE8=Ted Daffan's Texans - Born To Lose
TTITLE9=Charkie Walker - Pick Me Up On Your Way Down
TTITLE10=Billy Walker - Charlie's Shoes
TTITLE11=Merle Haggard - The Bottle Let Me Down
TTITLE12=Porter Wagoner - Misery Loves Company
TTITLE13=Willie Nelson - If You've Got The Money, I've Got The Time
TTITLE14=Moe Bandy - Hank Williams, You Wrote My Life
EXTD=
EXTT0=
EXTT1=
EXTT2=
EXTT3=
EXTT4=
EXTT5=
EXTT6=
EXTT7=
EXTT8=
EXTT9=
EXTT10=
EXTT11=
EXTT12=
EXTT13=
EXTT14=
PLAYORDER=
